<svg width="16" height="16" viewBox="0 0 16 16" fill="none" xmlns="http://www.w3.org/2000/svg">
<path fill-rule="evenodd" clip-rule="evenodd" d="M4 2.66665H2V12H3.33333V6.66665H12.6667V13.3333H2V14.6666H14V2.66665H12V1.33331H10.6667V2.66665H5.33333V1.33331H4V2.66665ZM6 12V10.6666H4.66667V12H6ZM8.66667 10.6666V12H7.33333V10.6666H8.66667ZM11.3333 12V10.6666H10V12H11.3333ZM6 7.99998V9.33331H4.66667V7.99998H6ZM8.66667 9.33331V7.99998H7.33333V9.33331H8.66667ZM11.3333 7.99998V9.33331H10V7.99998H11.3333ZM3.33333 3.99998H12.6667V5.33331H3.33333V3.99998Z" fill="#7D4B0F"/>
</svg>
