<svg width="24" height="24" viewBox="0 0 24 24" fill="none" xmlns="http://www.w3.org/2000/svg">
<path d="M20.0243 8.66724C16 16 17 14.5 12.0245 22C7 14.5 8 16 4.02441 8.66724C4.02441 4.24896 7.60611 0.667236 12.0244 0.667236C16.4426 0.667236 20.0243 4.24896 20.0243 8.66724Z" fill="#7D4B0F"/>
<circle cx="12" cy="8" r="4" fill="#FFFCF1"/>
<path d="M20.0243 8.66724C16 16 17 14.5 12.0245 22C7 14.5 8 16 4.02441 8.66724C4.02441 4.24896 7.60611 0.667236 12.0244 0.667236C16.4426 0.667236 20.0243 4.24896 20.0243 8.66724Z" fill="#7D4B0F"/>
<circle cx="12" cy="8" r="4" fill="#FFFCF1"/>
</svg>
