<svg width="24" height="24" viewBox="0 0 24 24" fill="none" xmlns="http://www.w3.org/2000/svg">
<path d="M17.6461 1.40914C17.3581 1.74514 16.4461 3.42514 15.5821 5.10514C14.4781 7.36114 13.9501 8.03314 13.5181 7.60114C12.7981 6.88114 11.5021 6.92914 10.7821 7.74514C10.3981 8.27314 9.63014 8.36914 7.99814 8.17714C5.79014 7.93714 5.64614 7.98514 3.67814 10.1451C2.57414 11.3451 1.42214 12.3531 1.18214 12.3531C0.558137 12.3531 0.558137 15.3291 1.23014 17.0091C1.90214 18.8331 3.91814 20.8971 6.07814 22.0011C8.57414 23.2971 14.9101 23.2971 17.4061 22.0011C20.7181 20.2731 22.7821 17.3451 22.7821 14.2731C22.7821 13.2651 22.2061 12.3051 20.8621 10.9131C19.8061 9.85714 18.9421 8.80114 18.9421 8.56114C18.9421 8.36914 19.6141 7.26514 20.3821 6.20914C21.8221 4.19314 22.2541 2.75315 21.3421 2.75315C21.0541 2.75315 20.0941 3.95314 19.1821 5.39314C18.2221 6.83314 17.2621 8.03314 17.0701 8.03314C16.8301 8.03314 16.2541 8.17714 15.8701 8.32114C15.3421 8.51314 15.7741 7.40914 17.0701 5.15314C18.3661 2.94514 18.8941 1.55314 18.6061 1.26514C18.3181 0.977144 17.9341 1.02514 17.6461 1.40914ZM13.5181 8.80114C13.7581 9.42514 14.1901 9.52114 15.7261 9.28114C17.4541 8.99314 17.7901 9.08914 19.0381 10.4331C19.7581 11.2491 20.3821 12.0171 20.3821 12.1131C20.3821 12.2091 16.4941 12.3051 11.7421 12.3051C5.98214 12.3051 3.10214 12.1611 3.10214 11.8251C3.10214 11.5371 3.53414 11.2011 4.01414 11.0571C4.54214 10.9131 5.07014 10.3851 5.16614 9.85714C5.40614 8.94514 5.69414 8.89714 8.04614 9.18514C10.1581 9.47314 10.7341 9.37714 10.9261 8.80114C11.3101 7.79314 13.1341 7.84114 13.5181 8.80114ZM21.8221 14.5131C21.8221 16.9611 19.1341 20.4171 16.3981 21.4251C14.6701 22.0971 8.81414 22.0971 7.08614 21.4251C4.35014 20.4171 1.66214 16.9611 1.66214 14.5131V13.3131H11.7421H21.8221V14.5131Z" fill="#7D4B0F"/>
<path d="M6.46216 10.4331C6.46216 10.6731 6.70216 10.9131 6.94216 10.9131C7.23016 10.9131 7.42216 10.6731 7.42216 10.4331C7.42216 10.1451 7.23016 9.95315 6.94216 9.95315C6.70216 9.95315 6.46216 10.1451 6.46216 10.4331Z" fill="#7D4B0F"/>
<path d="M7.9021 11.3932C7.9021 11.6332 8.1421 11.8732 8.3821 11.8732C8.6701 11.8732 8.8621 11.6332 8.8621 11.3932C8.8621 11.1052 8.6701 10.9132 8.3821 10.9132C8.1421 10.9132 7.9021 11.1052 7.9021 11.3932Z" fill="#7D4B0F"/>
<path d="M15.1021 11.3932C15.1021 11.6332 15.3421 11.8732 15.5821 11.8732C15.8701 11.8732 16.0621 11.6332 16.0621 11.3932C16.0621 11.1052 15.8701 10.9132 15.5821 10.9132C15.3421 10.9132 15.1021 11.1052 15.1021 11.3932Z" fill="#7D4B0F"/>
</svg>
