<svg width="16" height="16" viewBox="0 0 16 16" fill="none" xmlns="http://www.w3.org/2000/svg">
<g clip-path="url(#clip0_142_5254)">
<path d="M11.7641 0.939429C11.5721 1.16343 10.9641 2.28343 10.3881 3.40343C9.65209 4.90743 9.30009 5.35543 9.01209 5.06743C8.53209 4.58743 7.66809 4.61943 7.18809 5.16343C6.93209 5.51543 6.42009 5.57943 5.33209 5.45143C3.86009 5.29143 3.76409 5.32343 2.45209 6.76343C1.71609 7.56343 0.948092 8.23543 0.788092 8.23543C0.372092 8.23543 0.372092 10.2194 0.820092 11.3394C1.26809 12.5554 2.61209 13.9314 4.05209 14.6674C5.71609 15.5314 9.94009 15.5314 11.6041 14.6674C13.8121 13.5154 15.1881 11.5634 15.1881 9.51543C15.1881 8.84343 14.8041 8.20343 13.9081 7.27543C13.2041 6.57143 12.6281 5.86743 12.6281 5.70743C12.6281 5.57943 13.0761 4.84343 13.5881 4.13943C14.5481 2.79543 14.8361 1.83543 14.2281 1.83543C14.0361 1.83543 13.3961 2.63543 12.7881 3.59543C12.1481 4.55543 11.5081 5.35543 11.3801 5.35543C11.2201 5.35543 10.8361 5.45143 10.5801 5.54743C10.2281 5.67543 10.5161 4.93943 11.3801 3.43543C12.2441 1.96343 12.5961 1.03543 12.4041 0.843429C12.2121 0.651429 11.9561 0.683429 11.7641 0.939429ZM9.01209 5.86743C9.17209 6.28343 9.46009 6.34743 10.4841 6.18743C11.6361 5.99543 11.8601 6.05943 12.6921 6.95543C13.1721 7.49943 13.5881 8.01143 13.5881 8.07543C13.5881 8.13943 10.9961 8.20343 7.82809 8.20343C3.98809 8.20343 2.06809 8.10743 2.06809 7.88343C2.06809 7.69143 2.35609 7.46743 2.67609 7.37143C3.02809 7.27543 3.38009 6.92343 3.44409 6.57143C3.60409 5.96343 3.79609 5.93143 5.36409 6.12343C6.77209 6.31543 7.15609 6.25143 7.28409 5.86743C7.54009 5.19543 8.75609 5.22743 9.01209 5.86743ZM14.5481 9.67543C14.5481 11.3074 12.7561 13.6114 10.9321 14.2834C9.78009 14.7314 5.87609 14.7314 4.72409 14.2834C2.90009 13.6114 1.10809 11.3074 1.10809 9.67543V8.87543H7.82809H14.5481V9.67543Z" fill="#7D4B0F"/>
<path d="M4.30811 6.95545C4.30811 7.11545 4.46811 7.27545 4.62811 7.27545C4.82011 7.27545 4.94811 7.11545 4.94811 6.95545C4.94811 6.76345 4.82011 6.63545 4.62811 6.63545C4.46811 6.63545 4.30811 6.76345 4.30811 6.95545Z" fill="#7D4B0F"/>
<path d="M5.26807 7.59541C5.26807 7.75541 5.42807 7.91541 5.58807 7.91541C5.78007 7.91541 5.90807 7.75541 5.90807 7.59541C5.90807 7.40341 5.78007 7.2754 5.58807 7.2754C5.42807 7.2754 5.26807 7.40341 5.26807 7.59541Z" fill="#7D4B0F"/>
<path d="M10.0681 7.59541C10.0681 7.75541 10.2281 7.91541 10.3881 7.91541C10.5801 7.91541 10.7081 7.75541 10.7081 7.59541C10.7081 7.40341 10.5801 7.2754 10.3881 7.2754C10.2281 7.2754 10.0681 7.40341 10.0681 7.59541Z" fill="#7D4B0F"/>
</g>
<defs>
<clipPath id="clip0_142_5254">
<rect width="16" height="16" fill="white"/>
</clipPath>
</defs>
</svg>
